<svg xmlns="http://www.w3.org/2000/svg" viewBox="0 0 1977 1749" fill="currentColor" role="img" aria-label="Rhiwbina R.F.C.">
  <path d="M858.6 60.8c-.3.5-.1 2.4.3 4.3.5 1.9 1.6 6.8 2.6 10.9 1.4 6.3 7.4 31.8 9.1 38.5.2 1.1 2.1 8.1 4 15.5 2 7.4 4.2 15.7 4.9 18.5 2.4 9.2 4.4 16.7 5.4 19.8.6 1.8 1.9 6.3 3 10.2 4.9 17.3 16 54 21.1 69.5 1.5 4.7 6 18.6 10 31s9.2 28.3 11.5 35.5c2.3 7.1 5.2 16.4 6.5 20.5 1.2 4.1 2.6 8.6 3.1 10 1.6 4.4 8.4 29.5 12.9 48 3.8 15.3 6.9 39.1 7.7 59.1.7 16.9-2.5 41.6-7.3 56.9-5.3 16.8-8 24.1-12.9 34.4-3 6.4-5.5 11.9-5.5 12.1 0 1.3-23 38-27.9 44.5-3.1 4.1-9.2 12.2-13.6 18-28.6 38-71.5 82.6-133.4 138.9-30.8 28-37 33.9-61.1 58-14.1 14.1-30 31-35.5 37.6s-10.6 12.6-11.3 13.4c-6.5 6.7-27.8 37.9-37.1 54.1-6.6 11.5-17.4 32.8-21.5 42.5-1 2.2-2.4 5.3-3.1 7-6.2 13.3-18.2 50.9-22.9 71.5-.9 4.1-2.1 9.1-2.7 11.1-1.8 7.1-5.5 28.7-7.8 45.9-.7 4.7-1.6 11.5-2.1 15.2-.6 3.6-1.4 13.3-2 21.5-.5 8.1-1.3 16.4-1.6 18.3-.4 1.9-.9 17.9-1.3 35.4-.4 23-.9 32-1.8 32.3-1.2.4-6.3-4.4-19-18.1-13.7-14.6-28.2-33.7-34.5-45.6-1.7-3-3.8-7.1-4.9-9-10.6-20-16.4-49.1-15.3-77.5.7-18.7 3.2-33.5 9.8-59 8.5-33.3 32.7-89.5 58.1-135 4-7.2 8.7-15.7 10.5-19 7.7-14.2 37.9-63.9 54.2-89.3 2-3.1 5.8-9.1 8.3-13.2s8.9-14.3 14.1-22.5c9.1-14.5 36.6-59.7 39.1-64.2.6-1.3 3.6-6.4 6.6-11.5 5.3-9 9-15.7 16.9-30.3 2.1-3.9 8.5-16.7 14.4-28.5 5.8-11.8 10.9-22.2 11.4-23.1.4-.9 2.7-6.1 5-11.5s4.7-11.3 5.5-12.9c17-38.7 29.5-88.5 31.4-124.6 3-57.7-10.3-99.4-45-141-23.5-28.3-67.2-58.5-109.4-75.6-2.7-1.2-6.3-2.6-8-3.3-9.4-3.8-28.3-9.3-40-11.6-16.6-3.2-21.1-3.6-42-3.5-19.5 0-23.2.3-33 2.5-15.9 3.5-19.6 4.5-23.2 6.1-1.7.8-3.7 1.5-4.5 1.5-.7 0-6 2.4-11.8 5.3-50.3 25.3-83.5 72.4-97.4 137.7-4.7 22.5-4.9 25.3-5.7 86-.7 60.7-.6 59-5.2 76.1-4.8 17.7-20.2 38.7-36.7 49.7-7.8 5.2-12.3 9.2-11.5 10.1.6.6 20.9-2.9 38-6.5 27.6-5.9 53.7-16.8 67-28 3.9-3.3 8.7-7.2 10.7-8.8 5.5-4.1 21.6-27.1 24.2-34.6 8.6-23.9 10.8-32 11.7-41.5.5-5.5 1.6-16.1 2.4-23.5s1.7-17.3 2-22c4-55.8 42.9-94.9 94.6-95 26 0 47.6 8.4 68.2 26.7 21.1 18.8 34.9 43.5 44.1 79.3 2.9 11.4 4.5 31.7 3.5 45.5-1.2 16.9-4.5 39.3-6.8 45.5-.5 1.4-1.9 6.1-3.2 10.5-2.2 8.2-5.2 17.4-6.9 21-.5 1.1-2.5 6.1-4.4 11.2-13.1 33.9-42.2 84.8-75.1 131.3-17.7 25-31.7 43.8-70.5 94.7-36.6 48.1-48.8 65.5-67.5 96.2-18.1 30-37.9 72-46.1 98-1.3 4.2-3 9.6-3.8 12.1-3.1 9.5-8.6 32.7-8.6 36.1 0 1.3-.8 5.8-1.7 9.9-2.5 11.6-2.5 61.7.1 75.5 5.4 28.8 11.4 47.2 23.6 71.5 29 58.1 93.3 116.7 177 161.5 11.5 6.1 52.5 26.5 53.4 26.5.3 0 4.1 1.6 8.3 3.6 4.3 1.9 9.4 4.2 11.3 5 1.9.9 4.4 1.9 5.5 2.4s4.9 2.1 8.5 3.5 7.4 3 8.5 3.5c2.2 1 10.7 4.3 16.8 6.6 5.1 1.9 10 3.8 18.2 7 3.9 1.5 8.8 3.3 11 4s8.5 2.9 14 4.9 11.6 4.1 13.5 4.6c1.9.6 4.9 1.7 6.7 2.5 1.7.8 3.9 1.4 4.8 1.4s2.5.5 3.6 1.1c2.7 1.4 13 4 14.2 3.6 1.1-.3-.5-1.7-16.9-14.5-18.9-14.9-41.1-38.4-56-59.4-2.8-4-16.4-26.6-16.4-27.3 0-.2-2-4.6-4.4-9.7-9.3-19.9-15.7-41.9-20.2-68.8-2.7-16.1-2.7-64.7-.1-82.5 4.2-28.6 7.4-42.8 16.6-73.5 4.1-13.5 13.4-38.1 21.7-57 10-23 31.3-62.3 49.2-91 18.7-29.7 51.7-74.9 71.6-98 1.7-2 5.1-6 7.6-9 17.8-21.5 42-47.2 82.5-87.5 45.1-44.9 64.1-66.7 82.1-94.7 3.6-5.6 7.9-12.1 9.4-14.3s4.5-7.4 6.7-11.5 5.8-10.9 8.1-15c8.3-15.3 21.5-48.5 25.9-65 5.4-20.6 6.4-25.2 10.4-49 3.3-19.7 3.4-66.2.3-88-3.3-23.2-5.3-33.8-8.4-46-1.2-4.7-2.4-9.6-2.7-11-2.2-11.5-10.1-33.5-25.5-71.5-4.4-10.8-24.5-49.6-33.7-64.9-5.3-8.9-9.8-16.5-10-17s-6-9.3-12.9-19.5c-19.6-29-35.4-50.3-60.2-81.1-22.2-27.5-22-27.3-23.4-25.2m189.1 64.2c-.3 1.9-1.1 9.8-1.7 17.5-.7 7.7-1.8 20.3-2.5 28-1.3 13.7-2 20-5 46-4.9 42-4.9 42.9-5 75.5 0 39 1.1 47.9 8.7 73 5.9 19.2 19.6 44.3 32.1 59 9.3 10.8 21.1 22.8 27.2 27.8 3.9 3.1 7.2 5.9 7.5 6.2 1.3 1.6 15.3 12.2 22 16.7 11.2 7.6 25.2 16.7 27.5 17.9 1.1.6 5.6 3 10 5.4 25.6 13.8 31.4 16.7 41 21 3.9 1.7 8.4 3.7 10 4.5 9.1 4.2 16.6 7.5 17.1 7.5 1.5 0 17.8 8.8 25.1 13.5 27.5 18 25.4 49.5-5.5 84.2-14.1 15.9-34.3 29.6-54.3 36.8-45.9 16.6-75.7 18.5-98.9 6.3-21.1-11.1-35.4-45.7-23.4-56.9 2.3-2.1 3.5-2.4 10.2-2.4 8.8 0 10 .6 25.7 11 16.6 11 31.6 17.6 44.5 19.6 32.9 5 58.3-12.6 68.6-47.6 2.7-9.3 2.2-27.9-.9-36.6-5.8-15.9-16.5-25.5-39.9-35.8-2.6-1.2-4.9-2.1-5.2-2.1-.5 0-10.2-4.3-18.1-8-1.1-.6-5.3-1.7-9.3-2.5-32.8-6.7-70.1 14-112.4 62.4-11 12.6-25.8 34.5-29.6 43.6-9.9 24.3-12.8 37.4-11.8 54.5.8 14.2 2.4 20.5 8.3 33.6 19.3 42.7 83.4 80.8 131.5 78 13.1-.7 31.8-4.4 39.3-7.6 1.1-.5 3.1-1.2 4.5-1.6 13-3.6 42.3-20.9 63.9-37.8 14.7-11.4 19.7-15.9 58.4-52 7.1-6.6 13.6-12.7 14.6-13.5 1-.9 8.1-7.5 15.7-14.6 7.6-7.2 17.5-16.4 21.9-20.5s11.3-10.6 15.3-14.5c4-3.8 7.7-7.1 8.3-7.3 1-.4 16.1-19.7 17.7-22.8.6-1.1 1.8-6.1 2.7-11.2 1.5-8.7 1.5-9.4-.4-16.5-2.9-10.8-3.5-12-9.9-21-13.1-18.3-38.3-38.1-66.2-51.8-8.7-4.2-24.2-11.4-38-17.5-6.2-2.8-29.6-14.5-39-19.6-4.2-2.2-15.9-9.3-21.5-12.8-1.3-.8-4.4-2.8-6.9-4.3-25.4-15.4-59-44.6-82.2-71.2-34.1-39.3-63.9-102.1-75.8-160-.7-3.3-1.6-6.9-1.9-8-1.2-3.8-5.1-25.5-7.6-43-4.5-30.7-5.5-35-6.4-28.5m345.5 533.7c-11.5 8.5-30.1 22.1-41.2 30.1-4.7 3.3-18.6 13.5-31 22.6-29.2 21.4-43.4 31.7-54.5 39.7-8.5 6.2-27.3 19.9-43 31.4-15.4 11.3-35.1 25.7-53.3 39-19.8 14.4-70.5 51.8-91.7 67.5-32 23.7-31.7 23.5-33.6 20-.4-.8-1.8-4.9-2.9-9-1.2-4.1-2.5-8.6-3-10-.4-1.4-1.8-5.9-3-10s-2.8-9.3-3.5-11.5-2.2-7.2-3.4-11c-2.7-9.5-11.8-39.9-13.5-45.5-.7-2.5-2.2-7.2-3.1-10.5-1-3.3-2.4-7.8-3.1-10s-2.2-7.4-3.4-11.5-2.8-9.3-3.5-11.5-2.1-6.7-3-10c-1-3.3-2.3-7.8-3-10s-2.3-7.4-3.5-11.5c-6.9-23.7-12.1-39.9-13-40.5-.3-.2-1.8.2-3.1.9-3 1.5-50.5 37.6-56.2 42.7l-4 3.5 1.1 48.5c1.4 54.1 1.5 100.8.4 102.5-.4.6-8.1 6.1-17.2 12.2-80.5 54.5-124.7 108.7-149.1 182.7-5.3 15.9-6.6 21-10.3 40-4.6 23.6-4.9 27.5-3.1 32 3.5 8.3 10.8 12 22.2 11.3 7.5-.5 11.5-3.5 13.2-10.1 3.3-13 5.1-20.8 5.1-22.3 0-2.1 10.5-25.6 13.8-30.9 13.9-22.3 29.8-41.4 50.8-61 13.9-13 37.4-33 45.8-38.9 2.4-1.7 8.6-6.3 13.7-10.1 5.2-3.9 13.6-10 18.7-13.5 5.1-3.6 11.3-7.9 13.6-9.7 7.1-5.3 8.7-5.2 14.7.4 14.5 13.5 32 41.5 44.2 70.8 2.1 4.9 4.2 9.9 4.7 11 4.6 10.7 6 13.5 6.9 13.5.5 0 4.3-3.9 8.4-8.8 38.2-45 92-73 113.3-58.9 11.2 7.3 13.1 27.3 5.8 59.2-6.1 26.7-18.5 52.2-34.4 71-11.3 13.3-65 65.5-93.5 91-6 5.4-11.2 10.1-11.5 10.5-.3.3-5.2 4.6-11 9.5-5.8 5-11.2 9.7-12 10.5s-6.9 6-13.5 11.5-12.2 10.2-12.5 10.5-5.4 4.6-11.5 9.5c-6 4.9-14.6 11.9-19 15.5-4.4 3.7-14.7 12.2-23 19.1-38.6 31.9-93.1 83.7-92.3 87.7.4 2.3 4.7 3 25.3 4.2 9.9.5 22.5 1.4 28 1.9 5.5.6 18.3 1.3 28.5 1.6s25 1 33 1.6c8 .5 30.5 1.4 50 1.9s49.7 1.4 67 1.9c58.8 1.9 209.4 4.4 236 3.8 44.3-.9 59.5-4.6 101.5-25.2 9.4-4.6 19.9-9.4 23.5-10.8 9.7-3.6 25.2-5.1 43.8-4.4 88.9 3.6 123.7 3.5 133.7-.4 7.5-3 13.5-8.7 13.5-12.9 0-6.8-5.7-13.9-14.9-18.5-5.3-2.7-6.1-2.8-30-3.6-13.5-.4-81.1-1.3-150.1-1.8-69-.6-157-1.5-195.5-2.1-38.5-.5-85.5-1.2-104.5-1.4-27.2-.3-36.4-.7-43.5-2.1-14.9-2.8-20.5-6.3-20.5-12.6 0-6.8 8.3-15.1 32.9-32.9 17.7-12.8 38.3-28.9 44.6-34.8 3.3-3.1 11.6-11 18.5-17.7 6.9-6.6 16.1-15.3 20.5-19.2s14.5-12.8 22.5-19.9c33.2-29.4 53.8-50.4 69.2-70.4 6-7.8 20.8-31.7 20.8-33.6 0-.7 3.1-7.9 4.9-11.4 2.2-4.1 7-27.6 7.6-36.5 1.6-26.6-9.7-62-28.9-90-11.7-16.9-13.6-19.2-20.3-24.3-15.8-11.7-23.4-25.5-20.3-36.6 2.7-9.8 8-13.9 33-26.3 9.6-4.7 36.1-17.8 58.8-28.9 22.7-11.2 41.5-21 41.7-21.6.2-.7.9-7.6 1.4-15.3 1.1-15.6 2.8-24.2 7.3-36 6.7-17.5 13.1-25.9 37-48.5 32.4-30.6 39.9-38.7 44.1-46.9 6.8-13.5 5.2-19.4-7.1-25.5-7.5-3.7-8.7-3.4-19 4.1m373.3 882.8c-29.4 4.9-50.2 21.8-59.1 48-4 11.7-4.7 35.4-1.4 47.1 7.3 26 25.4 43 53.7 50.3 11.6 3 38.2 3 49.3.1 22.4-6 36.9-17.6 45.4-36.3 4.9-10.6 5.3-13.2 2.4-15.1-1.3-.8-4.8-1.9-7.8-2.5s-8.9-2-13-3.2c-13.6-3.7-19.2-4.9-19.9-4.4-.5.2-1.6 2.6-2.5 5.2-3.8 10.5-8.1 15.9-16.1 20.1-4.4 2.3-6.2 2.6-14.5 2.6-22.2-.1-31.9-11.9-32-38.6 0-23.1 6.4-33.8 22.8-38 8.7-2.3 13.6-2.2 21.3.2 9.7 3 15.6 8.8 17.3 17.1.7 3.2 3.4 4 9.6 2.9 14.6-2.6 30.3-5.8 34-6.9 3.4-1 3-5.1-1.6-14.4-6-12.1-13.3-19.4-26.8-26.7-15.3-8.2-39.2-11.1-61.1-7.5m-1705.3 1.7c-.9.9-1.2 18.1-1.2 71.4 0 63.5.2 70.3 1.6 71.5 2.2 1.8 41.8 1.6 44-.2 1.1-.9 1.4-6 1.4-26.5 0-23.7.1-25.4 1.9-26.3 2.7-1.5 12-.2 15.9 2.1 3.4 2.1 15.2 15.1 33.7 37.3 5.9 7.1 11.5 13.4 12.3 13.9 2.3 1.4 97.1.9 98.8-.5 1.1-.9 1.4-6.5 1.4-28.1 0-25.6.1-26.9 1.9-27.6 1.1-.4 12.2-.5 24.8-.2l22.8.5.3 27.1c.2 22 .5 27.4 1.7 28.4 1 .8 7.6 1.1 22.2 1.1 18.2-.1 21-.3 22.1-1.8 1.5-2.1 1.8-136.6.2-140.7l-1-2.6h-21.4c-16.5 0-21.6.3-22.5 1.3-.7.9-1.2 9.8-1.3 25.8l-.3 24.4h-49l-.3-24.4c-.1-16-.6-24.9-1.3-25.8-.9-1-5.9-1.3-22.5-1.3-20.1 0-21.4.1-22.4 1.9-.6 1.3-1 24.7-1 69 0 39.7-.4 67.2-.9 67.6-1.3.8-2.6-.7-18.4-21.3-13.5-17.7-24.8-30.4-29.2-32.8-2.8-1.5-.6-4 4.8-5.5 2.3-.6 6.2-2.1 8.7-3.4 20.5-10.5 23.7-43.6 5.9-60.1-15.1-13.8-23.2-15.3-86.4-15.4-34.6 0-46.4.3-47.3 1.2m86.2 34.7c5.8.6 7.3 1.2 9.2 3.5 3.2 3.6 3.2 8.6 0 12.3-2.3 2.6-3 2.8-12.8 3.4-16.4 1.1-32.8 1-34.9-.1-1.6-.9-1.9-2.2-1.9-9.3 0-5.1.5-8.8 1.2-9.5 1.4-1.4 27.8-1.6 39.2-.3m240.7-34.5c-.8.9-1 20.5-.9 71.7l.3 70.4 2.5 1.1c1.7.7 9.1.9 22.5.5l20-.6.5-65.7c.3-36.1.8-66 1.3-66.4 1.4-1.5 3.3 2.1 5.6 10.6 1.3 4.7 2.9 10.3 3.6 12.5s2 6.5 2.8 9.5c.9 3 2.6 8.6 3.7 12.5 1.2 3.8 2.8 9.5 3.7 12.5s2.1 7.3 2.8 9.5c.6 2.2 1.9 6.5 2.8 9.5s2.6 8.6 3.7 12.5c1.1 3.8 2.8 9.5 3.7 12.5s2.2 7.5 2.9 10c.8 2.5 2.3 7.7 3.5 11.7 1.1 4 2.7 7.7 3.5 8.4 1.1.9 7.3 1.3 22 1.3 19 0 20.6-.1 22.3-1.9 1-1.1 4.4-10.1 7.6-20 10.7-33.5 18.7-57 19.5-57.9 1.5-1.6 2-.3 17.9 49.4 8.6 26.7 8.9 27.6 10.7 29.1 2 1.7 42.4 1.4 43.9-.3.6-.7 2-4.2 3-7.8.9-3.6 2.3-8.3 3.1-10.5.7-2.2 2.2-7.4 3.4-11.5s2.7-9.3 3.4-11.5c1.7-5.3 4-13 7.2-24 1.5-5 3.3-11 4-13.5s2.3-7.7 3.4-11.5c1.1-3.9 2.7-9 3.4-11.5.8-2.5 2.6-8.8 4-14 1.5-5.2 3.3-10.9 4-12.5.7-1.7 1.7-4.5 2.1-6.3s1.2-3.1 1.8-2.9c.9.3 1.3 17.9 1.5 68.4.2 57.3.4 68.3 1.6 69.2 1.8 1.5 90.8 1.6 103.5.1 21.7-2.5 36.7-13.9 43.1-33.1 2.9-8.4 2.3-16.5-1.9-25.2-3.5-7.3-6.6-10.5-14.1-14.5-6.5-3.5-7-4.6-3.3-6.5 3.7-2 6.5-5.2 9.4-10.7 3.4-6.4 3.5-22.4.2-28.6-4-7.6-11.7-14.8-19.5-18.6-13.8-6.7-15.6-6.8-94.3-6.8-78.8.1-72.5-.6-74.4 7.7-.6 2.7-1.8 7.3-2.7 10.3-1.8 6.4-5 18.4-6.9 25.5-.8 2.7-2.4 8.6-3.5 13-1.2 4.4-2.5 9.3-2.9 10.9-1.8 7.8-3.7 3.9-12.2-23.9-3.3-11-6.9-22.9-8-26.5s-2.4-8.3-3-10.5c-.5-2.2-1.7-4.6-2.6-5.3-2.5-1.8-46.6-1.7-48.1.1-1.1 1.3-4.2 10.3-16.6 48.7-3.2 9.6-6.2 17.9-6.7 18.5-1.7 1.7-3.6-1.9-6.2-12-1.4-5.5-3.5-13.6-4.7-18s-2.8-10.3-3.5-13c-2.9-11.4-5.4-20.2-6.4-22.8l-1.1-2.7h-45.4c-37 0-45.6.2-46.5 1.4m370.4 36.6c4 3.7 3.5 8.3-1.3 11.5l-3.9 2.5-20.9-.2-20.9-.3-.3-7c-.4-10-1.1-9.8 24-9.3 20.2.4 20.8.5 23.3 2.8m3.2 52.7c7.3 3.9 7.1 13.1-.3 16.8-3.6 1.8-5.9 2-26.9 2h-23l-.3-9.4c-.1-5.2 0-10.1.3-10.8.4-1.2 4.5-1.4 23.2-1.1 21.4.3 23.1.4 27 2.5m66.8-89.5c-.3.7-.4 33.2-.3 72.3l.3 70.9 3 .6c1.7.3 11.8.3 22.5 0l19.5-.5v-144l-22.3-.3c-17.3-.2-22.4 0-22.7 1m64.5.7c-1.6 3.1-1.4 139.2.3 141.5 1.1 1.5 3.3 1.7 20.5 1.8 13.9 0 19.6-.3 20.7-1.2 1.3-1.1 1.5-6.2 1.5-34.7 0-30.9.1-33.4 1.7-33.1.9.2 13 15.3 26.9 33.7 13.8 18.4 25.9 33.8 26.7 34.3 1.8.9 39.3 1.3 41.7.4 1.3-.6 1.5-9.2 1.2-71.4-.1-38.9-.4-71.3-.7-72-.3-1-5.1-1.2-21.2-1l-20.8.3-.3 35.3c-.2 32.9-.3 35.3-2 35s-5.1-4.7-37.7-47.8l-17.1-22.5-20.1-.3c-19.2-.2-20.3-.1-21.3 1.7m211.8-.2c-.9 1-3.4 5.6-5.6 10.3s-7 14.8-10.7 22.5c-8.4 17.4-15.6 32.6-20.5 43-17.4 37-29.1 60.9-30.6 62.6-1.7 1.9-.9 4.9 1.5 5h23.6c21.5-.1 22-.2 23.7-2.4 1-1.2 2.1-3.1 2.4-4.2s1.8-4.5 3.1-7.5c1.4-3 3.3-7.3 4.3-9.5 2.9-6.8 1.9-6.6 31.6-6.3l26.9.3 7 14.2c5.5 11.2 7.5 14.4 9.5 15.1 1.4.5 11.5.7 22.5.5 11-.1 20.7-.3 21.6-.3 2.6 0 2.9-2.4.9-6.6-1.1-2.2-14-28.4-28.8-58.4s-29-59-31.7-64.5-5.7-11.2-6.8-12.8l-1.8-2.7h-20.3c-18.1 0-20.5.2-21.8 1.7m27.5 65.4c5.2 11.1 5.6 12.9 3 13-22.2 1.2-21.9 1.4-15.8-11.5 1.9-4.1 3.5-7.9 3.5-8.4 0-1.1 2.2-3.2 3.5-3.2.5 0 3.2 4.6 5.8 10.1m151.3-66.2c-1 1.5-.7 142.4.2 143.3.5.5 10.3.9 21.7 1 19.1.1 20.9 0 22.2-1.7 1-1.5 1.3-7.6 1.3-27.2V1633l2.3-.5c3.7-1 14.4 1.2 17.5 3.5 1.6 1.2 5.6 5.4 8.9 9.3 9.6 11.4 21.3 25.6 27.2 33 2.9 3.7 6.3 7.3 7.4 7.9 3.1 1.6 95.3 1.4 97.3-.3 1.1-.9 1.4-4.6 1.4-18 0-15.6-.1-16.9-1.9-17.9-2.6-1.3-38.6-1.3-41.2 0-1.7 1-1.9 2.3-1.9 15.6 0 13.2-.2 14.5-1.7 14.2-1-.2-8.5-9.1-16.6-19.8-13.9-18.1-25.4-31-30.2-33.6-2.8-1.6-.6-4.1 4.9-5.4 28.8-7.3 35.8-44.9 12.1-65.8-13.1-11.5-23.7-13.2-84.7-13.2-25.4 0-45.9.4-46.2.9m92.1 35.9c6.2 3.3 7.4 10.3 2.5 15.1-2.6 2.7-3.2 2.8-16.6 3.4-17.1.9-27.4.9-30.3.1-2.2-.6-2.3-1.1-2.3-9.9 0-6.5.4-9.5 1.3-9.9 2.3-1.1 43.2 0 45.4 1.2m135-36.1c-1.3 1.3-.8 143.1.5 143.9s40.3.6 43.1-.2c1.6-.5 1.7-2.6 1.7-25.7 0-13.9.3-26.2.6-27.5l.6-2.2 30.7-.1c16.8-.1 31.7-.4 33.1-.8l2.5-.7.3-15.1c.2-12.8 0-15.4-1.3-16.7-1.4-1.4-5.6-1.6-33-1.6-36.2 0-33.5.8-33.5-10.3 0-4.2.5-6.8 1.3-7.6 1-.7 13.3-1.2 39.3-1.3l37.9-.3v-34l-61.6-.3c-33.8-.1-61.9.1-62.2.5m137.1 107c-1.6.4-1.8 2.1-1.8 17.8 0 12.8.3 17.5 1.3 18.3 2 1.7 40.2 1.9 42.1.2 1.3-1 1.6-4 1.6-18.1 0-15.6-.1-16.9-1.9-17.9-1.9-1-37.7-1.3-41.3-.3m226.4.5c-1.9 1.9-1.7 34.2.3 35.8 1.5 1.2 39.6 1.7 41.6.5.5-.4.9-8.5.9-18.5 0-15.3-.2-17.9-1.6-18.4-3.1-1.2-39.9-.7-41.2.6"/></svg>
