<svg xmlns="http://www.w3.org/2000/svg" viewBox="0 0 1416 1487" fill="currentColor" role="img" aria-label="Rhiwbina R.F.C. squirrel">
  <path d="M631.6 60.8c-.3.5-.1 2.4.4 4.3s1.6 6.8 2.5 10.9c1.3 6.1 6.9 29.9 9.1 38.5.2 1.1 2.1 8.1 4 15.5 2 7.4 4.2 15.8 4.9 18.6.7 2.7 1.7 6.6 2.3 8.5.6 1.8 1.8 5.9 2.6 8.9 2.3 8.5 5.6 20 7.2 25 .7 2.5 3.7 12.1 6.4 21.5 2.8 9.3 5.7 18.8 6.5 21 .7 2.2 3.7 11.4 6.5 20.5 2.9 9.1 8 25 11.4 35.5 3.4 10.4 8 24.4 10 31 2.1 6.6 4.4 13.8 5.1 16 1.3 4.3 3.3 10.7 5.8 19.5.9 3 2.3 7.7 3.1 10.5 1.4 4.6 3.7 14.1 7.1 29 4.1 17.6 7.5 46 7.5 61.5 0 20.9-5.8 50.1-14.2 72-3.5 9.1-16.4 35.1-20.3 40.9-2 3-5.5 8.7-7.8 12.5-7 11.9-32.3 45-51.6 67.4-21.2 24.7-59.2 63.4-86.6 88.2-80.9 73.2-111.1 104-139.1 141.5-6 8.1-19.7 28.5-22.8 34-.9 1.6-3.3 5.7-5.2 9-15 26-30.2 61.7-38.9 92-.9 3.3-2.3 8-3 10.5-12.3 42.1-20.3 103.7-21.2 164-.3 17.4-.9 30.9-1.5 31.5-1.1 1.2-21.6-19.8-33.1-34-21.5-26.6-32.1-47.8-38.4-76.4-3.2-14.7-3.6-44.9-.8-62.8 1.8-11.4 8.6-40.4 11.5-48.8.9-2.8 3.4-9.9 5.4-16 3-8.9 10.7-28 15.6-39 5.2-11.6 8.6-18.8 16.9-35.5 8.9-17.9 17.3-34 19.1-36.5.4-.6 2.5-4.4 4.8-8.5 8.2-15.1 37.3-63.7 51-85.2 5.8-9.1 22.2-35 27.7-43.8 2.8-4.4 7.9-12.6 11.4-18.2 9.7-15.5 36.2-60.2 41.1-69.3 2.3-4.4 4.6-8.5 5-9 2.5-3.3 21.5-40.5 27.9-54.5 2.9-6.3 6-12.9 6.8-14.5 2.8-5.8 12.4-29.4 16.2-40 6.4-17.6 14-43.2 15.6-51.5.3-1.9 1.2-6.2 2-9.5 6.4-27.6 7.7-69 3-94C519 312.7 483.5 267 418 228.7c-10-5.8-24-13-32.5-16.7-2.7-1.1-5.9-2.5-7-3.1-10.5-5-37.7-12.9-57-16.5-13.8-2.5-50-2.6-62.5 0-11.9 2.4-19.7 4.5-25.5 6.7-2.8 1-5.4 1.9-5.8 1.9-.5 0-5.6 2.3-11.5 5.1-49.4 23.7-83.5 71.8-97.5 137.9-4.8 22.3-5 25.3-5.8 86-.7 60.7-.6 59-5.2 76.1-4.8 17.8-20 38.2-36.9 49.5-8.4 5.6-11.7 8.8-10.5 10 .4.4 2.8 0 23.2-3.7 34.7-6.3 63.6-16.8 77.7-28.3 2.8-2.2 7.7-6.1 10.8-8.6 7.4-5.8 9.5-8.5 23.2-28.6 1.5-2.2 4.1-8.1 5.8-13s4.4-13 6.1-17.9c2.5-7.1 3.4-12.2 4.5-24.5.7-8.5 1.6-16.4 1.8-17.5.3-1.1 1-8.6 1.6-16.6 1.7-21.6 5.2-35.6 12.5-50.1 16.6-32.5 46-50.8 82-51 16.4-.2 24.6 1.6 41 8.5 21 9 44 31.1 55.3 53.2 5.1 10 10.6 22.4 11.9 27 4.5 15.8 5.5 19.8 6.4 28 .5 4.9 1.4 11.5 1.9 14.6.9 5.8-.1 26.4-1.9 39.4-6.4 45.7-26.9 94.6-66.5 158.2-4.7 7.6-24.9 37.7-30.7 45.8-2.8 3.8-5.8 8.1-6.7 9.5-4 6-29.6 40.1-53.4 71.3-31.9 41.6-44.6 58.9-57.5 78.2-17.1 25.7-37.2 61-45.7 80.5-1.6 3.6-3.9 8.7-5.1 11.5-2 4.3-5.8 13.9-11 27.5-5.7 15.2-12.1 40.2-16 62.9-3.3 19.4-3 63.6.6 81.3 3.6 17.9 6.5 28.4 11 39.9 1.6 4.2 2.9 7.9 2.9 8.4 0 1.7 10.7 22.6 16.9 33 32.1 53.8 86.7 101.9 165.1 145.4 10.6 5.9 51.9 26.2 62 30.6 4.7 2 10.5 4.6 13 5.7 4.8 2.2 7.4 3.3 16 6.8 3 1.2 6.3 2.6 7.2 3.1 1 .5 3.5 1.5 5.5 2.3 2.1.7 9.4 3.5 16.3 6.1s14.8 5.6 17.5 6.7c2.8 1 8.4 3 12.5 4.4s8.4 2.9 9.5 3.4c1.1.6 9.7 3.4 19 6.4 9.4 3.1 18.3 6 19.9 6.5 6.8 2.4 5-.5-4.9-7.8-14.8-10.9-41.7-36.8-52.7-50.6-24.4-30.6-40-63.5-49.2-103.5-3.5-15.5-4.8-28.1-5.3-51.5-.7-31.7 1.2-50.3 8.3-83.5 4.8-22 15.2-55.5 22.9-73.5.7-1.7 2.1-5 3.1-7.5 6.5-16.4 23.7-52 31.3-64.8 1.7-2.9 3.1-5.5 3.1-5.7 0-2.4 32.9-54 49.1-77 7.4-10.5 29.9-39.5 41.9-54 27.8-33.5 42.3-49.1 88-94.5 35.5-35.3 55.9-57.4 67.1-72.6 2.3-3.3 6.8-9.3 9.9-13.4 14.6-19.3 31.4-48.5 42.2-73 5.3-12 13.9-35.6 16.5-45 10.1-37.3 12.7-56.7 12.7-95 0-30.5-.5-36.4-5.5-65s-16-65.7-25.9-87.5c-.5-1.1-2.6-6.3-4.6-11.5-5.4-14-24.1-51-36.1-71.2-23.7-40.3-51.9-79.6-94.5-131.7-9.2-11.3-11.1-13.1-12.2-11.3M820.7 125c-.3 1.9-1.1 9.8-1.7 17.5-1.7 19.9-3.7 40.5-4.9 51-.6 4.9-1.7 15.1-2.6 22.5-.8 7.4-2.2 19.8-3.1 27.5-2.1 18.3-3 65.8-1.5 79 3.2 29.6 8.7 48.3 21.3 73 4.8 9.5 17 26.1 28.1 38.2 18 19.6 53.7 47 80.2 61.3 4.4 2.3 10.3 5.5 13 7 13.8 7.5 29.1 15.2 39 19.5 31.3 13.6 46.9 21.8 54 28.5 1.5 1.4 4.5 5.5 6.7 9.2 3.5 6 4 7.4 4.5 15.5s.3 9.6-2.6 18.3c-4.1 12-11.4 23.9-21.7 35.3-8.9 9.7-23.3 21.6-31.7 26.1-16.3 8.7-16.2 8.7-37.2 15.7-20.9 6.9-28.4 8.2-49 8.3-17.5.1-19.5-.1-24.8-2.2-17.2-6.6-26.2-15-34.4-32.1-3.4-6.9-3.7-8.4-3.7-16.3-.1-8.2.1-8.8 2.7-11.6 7.3-7.6 17.1-6.1 34.3 5.3 27.4 18.1 46 24.2 66.4 21.6 23.4-3 40.7-19.3 49-46.3 2.7-8.8 3.1-30.7.7-35.5-.8-1.6-1.7-4.1-2.1-5.7-1-4.2-7.8-13.2-13.7-18.3-5.7-4.9-14.4-9.9-23.9-13.9-3.6-1.5-8.9-3.8-11.9-5.1-15.9-7.3-23.4-9.3-34.1-9.3-13.3 0-29.7 5-43.4 13.3-5.5 3.3-21.6 15.1-25.6 18.8-19 17.4-39 39.2-45.8 49.9-1.9 3-5 7.9-7 10.9-11.6 17.8-20.1 44.5-20.2 63.5-.1 22.3 7.2 41.7 22.7 60.8 8.5 10.5 11.3 13.1 24 22.5 16.7 12.3 20.7 14.7 38.8 22.8 25.3 11.3 59.4 13.7 85.5 5.9 32.9-9.8 66.4-30.6 102-63.2 18.3-16.9 37.6-34.7 44.5-41.2 3.9-3.7 10.2-9.6 14-13.2 48-44.3 54.5-50.8 61.9-60.8 6.7-9 7.7-11.3 9.5-22.5 2.5-14.9-6.2-33-24.4-50.8-4.9-4.9-10.1-9.6-11.5-10.5s-5-3.5-8-5.7c-12.7-9.6-36.2-22.1-64-34.2-24.2-10.5-63.3-31.8-79.5-43.2-2.7-1.9-8.8-6.2-13.5-9.4-20.1-14.1-44.5-36.4-62-56.7-8.2-9.5-25.1-32.5-28.6-38.9-2-3.5-2.4-4.2-6.5-10.6-3.8-6-16.8-32.8-21.4-44.5-1.4-3.6-3-7.4-3.5-8.5s-2.5-7-4.5-13c-1.9-6.1-4-12.4-4.6-14-5.3-15.4-13.8-55.2-17.9-83.5-4.2-29.4-5.4-34.5-6.3-28m354.6 527.3c-3 1.6-8.4 5.5-22.3 15.7-6.4 4.7-16.3 12-22 16.2-5.8 4.2-19.5 14.2-30.5 22.2-11 7.9-25.2 18.2-31.5 22.8-11.7 8.6-40.5 29.6-60.5 44.2-6 4.4-16.8 12.3-24 17.5-7.1 5.2-17 12.5-22 16.1-4.9 3.6-15.3 11.2-23 16.8-7.7 5.7-25 18.4-38.5 28.3-23.5 17.2-30 22-63.4 46.8-14.3 10.6-19.1 13-20 9.8-3-10-18.2-61.2-19.1-64.2-2.8-9-4.5-14.4-6.5-21.5-1.2-4.1-2.8-9.3-3.5-11.5s-2.1-6.7-3-10c-1-3.3-2.3-7.8-3-10s-2.3-7.4-3.5-11.5-2.5-8.6-3-10c-.4-1.4-1.8-5.9-3-10s-2.8-9.5-3.6-12-4.6-15.1-8.5-28-7.2-23.7-7.4-23.8c-.2-.2-1.3-.1-2.4.3-2.7.8-59.3 44.1-60.5 46.2-.6 1-.5 20.4.3 49.7 1.7 72.3 1.6 100.9-.6 102.8-1 .9-8.3 6-16.3 11.4-22.1 14.9-37 26.2-53.5 40.3-16.6 14.3-45.1 45.9-56.9 63.1-11.3 16.5-23.5 38.8-30 55-1.5 3.6-3.1 7.4-3.6 8.5-.8 1.9-7.1 20.9-8.9 27-4.5 14.9-10.5 46.9-10.5 55.5 0 10.7 13 19.1 25.5 16.5 8.1-1.7 9.8-4.4 13.4-21.6 11.1-51.8 57.1-103.8 147.5-166.9 9.7-6.7 18.2-12 19.5-12 1.4 0 4.5 2.2 8.2 5.8 15.1 14.9 30.4 40.4 44.2 73.2 6.6 15.8 8.5 19.4 10.3 19.8.9.2 4.1-2.9 7.3-6.9 8-9.9 23-24.6 32.8-32.3 9.6-7.4 18.4-13.6 19.4-13.6.3 0 1.4-.7 2.3-1.5 1.9-1.7 17.8-9.7 24-12 8.7-3.3 21.6-4.9 28.2-3.5 14.7 3.2 20.2 18.2 16.3 44.7-2.5 17.2-8.7 39.9-13.1 48.3-.7 1.4-2.1 4.3-3 6.5-4.2 9.6-14.6 25.5-23.5 35.9-15.6 18.1-81.4 80.9-114.4 109.1-3.8 3.3-7.6 6.5-8.3 7.2s-7.9 6.8-16 13.6c-13.1 11.1-24.4 20.5-47.7 39.5-15.8 12.9-32.8 27.3-46.5 39.1-18.2 15.7-65 62-65 64.2 0 2.8 3.6 3.2 54 6.4 106.8 6.6 416.3 13.4 443 9.6 25.9-3.5 40.4-8.4 73.5-24.6 33.1-16.3 27.6-15.8 131.1-12.5 46.7 1.5 62.1.7 71.9-4 12.5-6 13.9-15.5 3.6-24.8-5.1-4.7-11.1-7.1-20.6-8.1-4.6-.6-58-1.5-118.7-2-294.6-2.8-384.6-4.3-394.8-6.5-17-3.7-21.9-9.9-15.1-19.3 3.3-4.6 16.3-16.3 23.6-21.3 24-16.4 45.6-33.8 62.5-50.3 7.4-7.3 19.8-18.8 27.5-25.7s14.2-12.7 14.5-13 6.1-5.5 13-11.5c31.9-27.9 63.3-62.3 76.2-83.6 5.7-9.3 14.3-28 15.9-34.3 8.2-32.8 7.6-47.6-3.2-80.7-5.4-16.6-30-55.8-38.2-60.9-5.9-3.7-16.9-15.1-19.4-20.1-8.9-17.8-3.6-28.3 20.3-40.2 6.6-3.4 79.6-39.3 99.7-49.2 5.4-2.6 10-5.1 10.2-5.5.2-.3.7-6 1-12.6 1.5-26.9 8.3-47.3 21.4-63.9 4-5.2 11.3-12.5 29.2-29.5 31.7-30.1 34.1-32.7 38.2-41.2 6.8-14.1 5.3-19.3-7.5-25.8-6.7-3.4-6.5-3.4-9.5-1.7"/></svg>
