<?xml version="1.0" encoding="UTF-8"?>
<svg xmlns="http://www.w3.org/2000/svg" width="1280" height="720" viewBox="0 0 1280 720" role="img" aria-labelledby="title desc">
  <title id="title">Rhiwbina Squirrels #1415 Games U11 YouTube playlist thumbnail</title>
  <desc id="desc">White squirrel club mark on a solid dark background beside the label #1415 Games U11.</desc>
  <metadata>Generated by scripts/youtube-playlist-thumbnails.py; edit the script, not this file. Canvas 1280x720. Background #1a1a1a. Linked club mark: veo-upper-right-mark.svg. Text outlined from Archivo at width 100, weight 700 for #1415 and 800 for the playlist name (110px), using Google Fonts Archivo[wdth,wght].ttf SHA-256 0e094a7d3c7c4c25cf1310c4b30014f1dae9332220b1c2c88f4fa996f0b05053.</metadata>
  <rect id="background" width="1280" height="720" fill="#1a1a1a"/>
  <g id="squirrel-mark" aria-label="Rhiwbina Squirrels mark">
    <image href="veo-upper-right-mark.svg" x="-29" y="89" width="580" height="580" preserveAspectRatio="xMidYMid meet"/>
  </g>
  <g id="label" fill="#ffffff" aria-label="#1415 Games U11">
    <path id="label-prefix" aria-label="#1415" d="M528.81 327.73 531.09 316.71H526.45V310.48H532.46L534.15 302.38H529.3V296.12H535.47L538.15 283.7H544.64L542 296.12H549.32L551.95 283.7H558.47L555.81 296.12H560.75V302.38H554.57L552.86 310.48H558.07V316.71H551.51L549.17 327.73H542.69L545.03 316.71H537.61L535.33 327.73H528.81ZM538.92 310.49H546.33L548.05 302.38H540.64L538.92 310.49ZM568.37 327V320.07H578.57V294.92H568.32V289.72Q570.41 289.53 573.1 288.76Q575.78 287.98 578.51 286.83Q581.23 285.69 583.41 284.43H587.22V320.07H596.72V327H568.37ZM620.13 327V317.68H600.97V310.82Q603.35 306.97 605.48 302.69Q607.61 298.41 609.41 293.64Q611.22 288.87 612.48 283.7H621.33Q620.65 286.71 619.44 290Q618.22 293.28 616.7 296.49Q615.17 299.69 613.57 302.51Q611.98 305.33 610.55 307.5Q609.12 309.67 608.15 310.84H620.13V300.52Q620.75 299.36 621.39 297.96Q622.04 296.57 622.67 295.09Q623.29 293.62 623.8 292.2Q624.3 290.79 624.66 289.54H628.62V310.84H634.03V317.68H628.62V327H620.13ZM642.34 327V320.07H652.54V294.92H642.29V289.72Q644.38 289.53 647.06 288.76Q649.75 287.98 652.47 286.83Q655.2 285.69 657.38 284.43H661.19V320.07H670.68V327H642.34ZM691.67 327.74Q686.83 327.74 683.27 326.04Q679.72 324.33 677.8 321.17Q675.88 318.01 675.88 313.67H684.36Q684.36 315.87 685.2 317.55Q686.04 319.23 687.63 320.13Q689.21 321.03 691.38 321.03Q693.51 321.03 695.04 320.12Q696.56 319.21 697.43 317.42Q698.3 315.63 698.3 313.06Q698.3 310.62 697.45 308.97Q696.61 307.33 695.08 306.49Q693.55 305.65 691.54 305.65Q689.93 305.65 688.71 306.18Q687.48 306.7 686.62 307.46Q685.77 308.22 685.15 309.09L677.4 308.07L679.15 284.44H704.68V292.12H686.3L685.66 301.72Q686.33 301.23 687.44 300.65Q688.55 300.07 690.19 299.62Q691.82 299.17 693.99 299.17Q697.74 299.17 700.7 300.71Q703.65 302.26 705.36 305.34Q707.06 308.43 707.06 313.1Q707.06 317.61 705.19 320.91Q703.32 324.21 699.88 325.98Q696.43 327.74 691.67 327.74Z"/>
    <path id="label-playlist" aria-label="Games U11" d="M567.68 437.32Q549.41 437.32 539.88 427.65Q530.35 417.97 530.35 398.21Q530.35 385.08 535.07 376.41Q539.78 367.75 548.74 363.43Q557.71 359.1 570.35 359.1Q577.96 359.1 584.67 360.84Q591.38 362.58 596.52 366.05Q601.65 369.53 604.52 374.77Q607.39 380.01 607.39 387.06H588.05Q588.05 384.08 586.69 381.73Q585.34 379.37 582.98 377.75Q580.62 376.12 577.56 375.3Q574.5 374.49 571.09 374.49Q565.99 374.49 562.11 375.84Q558.24 377.2 555.69 379.94Q553.14 382.67 551.87 386.62Q550.59 390.56 550.59 395.8V400.68Q550.59 407.73 552.79 412.47Q554.99 417.2 559.45 419.57Q563.91 421.93 570.48 421.93Q575.54 421.93 579.54 420.4Q583.53 418.87 585.89 415.94Q588.25 413.01 588.25 408.95V408.36H567.92V394.56H607.39V436H595.9L594.04 428.12Q590.68 431.18 586.76 433.23Q582.84 435.29 578.15 436.3Q573.46 437.32 567.68 437.32ZM637.61 437.32Q634.05 437.32 630.59 436.6Q627.12 435.87 624.3 434.07Q621.47 432.27 619.81 429.09Q618.15 425.9 618.15 421.04Q618.15 414.8 620.82 410.81Q623.49 406.81 628.48 404.59Q633.48 402.36 640.55 401.49Q647.63 400.61 656.44 400.61V396.9Q656.44 394.43 655.46 392.72Q654.48 391.01 652.54 390.06Q650.59 389.11 647.42 389.11Q644.55 389.11 642.42 389.8Q640.28 390.5 639.2 391.75Q638.11 393 638.11 394.78V395.72H620.46Q620.35 395.23 620.35 394.8Q620.35 394.37 620.35 393.78Q620.35 388.59 623.59 384.75Q626.83 380.91 632.92 378.8Q639.01 376.7 647.55 376.7Q655.53 376.7 661.57 378.66Q667.61 380.62 671.04 384.72Q674.47 388.82 674.47 395.37V420.14Q674.47 422.05 675.5 423.14Q676.53 424.23 678.14 424.23H681.9V435.32Q680.68 435.94 678.08 436.61Q675.48 437.27 671.86 437.27Q668.16 437.27 665.34 436.36Q662.52 435.46 660.71 433.76Q658.9 432.06 658.18 429.76H657.46Q655.35 431.95 652.53 433.67Q649.7 435.4 646.03 436.36Q642.36 437.32 637.61 437.32ZM644.31 424.89Q646.95 424.89 649.18 424.1Q651.4 423.32 653.02 421.95Q654.63 420.58 655.54 418.62Q656.44 416.66 656.44 414.34V410.45Q650.15 410.45 645.64 411.34Q641.12 412.23 638.72 414.08Q636.32 415.93 636.32 418.88Q636.32 420.98 637.35 422.32Q638.37 423.65 640.18 424.27Q641.98 424.89 644.31 424.89ZM689.26 436V378.02H704.13L705.41 386.26H706.18Q708.17 383.26 710.95 381.11Q713.72 378.95 717.16 377.83Q720.59 376.7 724.39 376.7Q730.35 376.7 734.55 379.06Q738.75 381.42 740.89 386.26H741.66Q743.65 383.26 746.45 381.11Q749.24 378.95 752.72 377.83Q756.2 376.7 759.99 376.7Q766 376.7 770.2 378.96Q774.4 381.22 776.62 385.81Q778.84 390.4 778.84 397.43V436H760.82V400.12Q760.82 397.74 760.28 396.01Q759.74 394.27 758.73 393.15Q757.72 392.02 756.23 391.44Q754.73 390.86 752.93 390.86Q750.04 390.86 747.81 392.35Q745.58 393.84 744.33 396.36Q743.09 398.87 743.09 402.1V436H725.06V400.12Q725.06 397.74 724.52 396.01Q723.98 394.27 722.98 393.15Q721.97 392.02 720.48 391.44Q718.98 390.86 717.18 390.86Q714.29 390.86 712.06 392.35Q709.84 393.84 708.56 396.36Q707.28 398.87 707.28 402.1V436H689.26ZM820.72 437.32Q810.82 437.32 803.85 434.07Q796.89 430.83 793.24 424.12Q789.59 417.41 789.59 407.01Q789.59 396.68 793.21 389.99Q796.83 383.31 803.61 380.01Q810.4 376.7 820 376.7Q829.5 376.7 836.06 379.9Q842.62 383.09 846.02 389.7Q849.42 396.31 849.42 406.71V410.55H807.76Q807.86 415.16 809.15 418.4Q810.43 421.64 813.21 423.27Q816 424.91 820.53 424.91Q823.3 424.91 825.41 424.25Q827.52 423.59 828.96 422.33Q830.4 421.08 831.13 419.28Q831.85 417.49 831.85 415.28H849.42Q849.42 420.6 847.46 424.73Q845.51 428.86 841.77 431.65Q838.04 434.44 832.73 435.88Q827.42 437.32 820.72 437.32ZM807.92 400.61H831.02Q831.02 397.7 830.29 395.56Q829.55 393.42 828.19 391.97Q826.82 390.53 824.88 389.85Q822.94 389.16 820.48 389.16Q816.55 389.16 813.9 390.47Q811.26 391.78 809.84 394.31Q808.41 396.83 807.92 400.61ZM885.3 437.32Q879.57 437.32 874.57 436.12Q869.57 434.93 865.75 432.6Q861.94 430.27 859.77 426.87Q857.61 423.48 857.61 418.97Q857.61 418.54 857.64 418.13Q857.66 417.72 857.72 417.38H874.81Q874.75 417.66 874.75 417.94Q874.75 418.22 874.75 418.44Q874.86 420.87 876.35 422.42Q877.84 423.96 880.28 424.67Q882.72 425.39 885.55 425.39Q887.7 425.39 890.04 424.99Q892.39 424.59 894.06 423.49Q895.74 422.38 895.74 420.24Q895.74 417.92 893.69 416.71Q891.64 415.5 888.3 414.72Q884.97 413.94 881.07 413.07Q877.21 412.26 873.31 411.14Q869.41 410.02 866.16 408.12Q862.92 406.22 860.93 403.13Q858.93 400.04 858.93 395.29Q858.93 390.22 861.07 386.67Q863.21 383.12 866.96 380.92Q870.71 378.71 875.6 377.7Q880.5 376.69 886.02 376.69Q891.07 376.69 895.67 377.7Q900.26 378.71 903.9 380.75Q907.55 382.78 909.64 385.91Q911.73 389.03 911.73 393.21Q911.73 393.74 911.71 394.36Q911.68 394.98 911.62 395.15H894.71V394.32Q894.71 392.47 893.5 391.22Q892.3 389.98 890.23 389.31Q888.16 388.64 885.54 388.64Q883.98 388.64 882.36 388.87Q880.74 389.1 879.41 389.63Q878.09 390.16 877.28 391.03Q876.47 391.9 876.47 393.23Q876.47 394.9 877.91 395.9Q879.35 396.9 881.79 397.57Q884.24 398.24 887.18 398.99Q891.26 399.92 895.8 400.83Q900.34 401.75 904.33 403.48Q908.33 405.21 910.82 408.55Q913.32 411.89 913.32 417.7Q913.32 423.24 911.13 427.06Q908.94 430.87 905.08 433.11Q901.23 435.34 896.14 436.33Q891.04 437.32 885.3 437.32ZM981.11 437.32Q970.13 437.32 962.29 433.92Q954.46 430.52 950.27 423.68Q946.09 416.83 946.09 406.69V360.42H965.83V406.3Q965.83 413.56 969.71 417.75Q973.58 421.93 981.05 421.93Q988.51 421.93 992.47 417.75Q996.43 413.56 996.43 406.3V360.42H1016.17V406.69Q1016.17 416.83 1011.99 423.68Q1007.81 430.52 999.97 433.92Q992.13 437.32 981.11 437.32ZM1035.38 436V421.77H1053.41V381.49H1035.33V370.78Q1039.64 370.45 1044.88 368.92Q1050.11 367.39 1055.27 365.1Q1060.42 362.81 1064.46 360.36H1071.48V421.77H1088.5V436H1035.38ZM1104.13 436V421.77H1122.16V381.49H1104.08V370.78Q1108.39 370.45 1113.63 368.92Q1118.86 367.39 1124.02 365.1Q1129.17 362.81 1133.21 360.36H1140.23V421.77H1157.25V436H1104.13Z"/>
  </g>
</svg>
